<?xml version="1.0" encoding="UTF-8" standalone="yes"?><svg xmlns="http://www.w3.org/2000/svg" xmlns:xlink="http://www.w3.org/1999/xlink" height="292px" style="width:637px;height:292px;" version="1.1" viewBox="0 0 637 292" width="637px"><defs><filter height="300%" id="f1" width="300%" x="-1" y="-1"><feGaussianBlur result="blurOut" stdDeviation="2.0"/><feColorMatrix in="blurOut" result="blurOut2" type="matrix" values="0 0 0 0 0 0 0 0 0 0 0 0 0 0 0 0 0 0 .4 0"/><feOffset dx="4.0" dy="4.0" in="blurOut2" result="blurOut3"/><feBlend in="SourceGraphic" in2="blurOut3" mode="normal"/></filter></defs><g><path d="M135,31 C135,28 137,26 140,26 C143,26 145,28 145,31 C145,28 147,26 150,26 C153,26 155,28 155,31 C155,28 157,26 160,26 C163,26 165,28 165,31 C165,28 167,26 170,26 C173,26 175,28 175,31 C175,28 177,26 180,26 C183,26 185,28 185,31 C185,28 187,26 190,26 C193,26 195,28 195,31 C195,28 197,26 200,26 C203,26 205,28 205,31 C205,28 207,26 210,26 C213,26 215,28 215,31 C215,28 217,26 220,26 C223,26 225,28 225,31 C225,28 227,26 230,26 C233,26 235,28 235,31 C235,28 237,26 240,26 C243,26 245,28 245,31 C245,28 247,26 250,26 C253,26 255,28 255,31 C255,28 257,26 260,26 C263,26 265,28 265,31 C265,28 267,26 270,26 C273,26 275,28 275,31 C275,28 277,26 280,26 C283,26 285,28 285,31 C285,28 287,26 290,26 C293,26 295,28 295,31 C295,28 297,26 300,26 C303,26 305,28 305,31 C305,28 307,26 310,26 C313,26 315,28 315,31 C315,28 317,26 320,26 C323,26 325,28 325,31 C325,28 327,26 330,26 C333,26 335,28 335,31 C335,28 337,26 340,26 C343,26 345,28 345,31 C345,28 347,26 350,26 C353,26 355,28 355,31 C355,28 357,26 360,26 C363,26 365,28 365,31 C365,28 367,26 370,26 C373,26 375,28 375,31 C375,28 377,26 380,26 C383,26 385,28 385,31 C385,28 387,26 390,26 C393,26 395,28 395,31 C395,28 397,26 400,26 C403,26 405,28 405,31 C405,28 407,26 410,26 C413,26 415,28 415,31 C415,28 417,26 420,26 C423,26 425,28 425,31 C425,28 427,26 430,26 C433,26 435,28 435,31 C435,28 437,26 440,26 C443,26 445,28 445,31 C445,28 447,26 450,26 C453,26 455,28 455,31 C455,28 457,26 460,26 C463,26 465,28 465,31 C465,28 467,26 470,26 C473,26 475,28 475,31 C475,28 477,26 480,26 C483,26 485,28 485,31 C485,28 487,26 490,26 C493,26 495,28 495,31 C495,28 497,26 500,26 C503,26 505,28 505,31 C505,28 507,26 510,26 C513,26 515,28 515,31 C515,28 517,26 520,26 C523,26 525,28 525,31 C525,28 527,26 530,26 C533,26 535,28 535,31 C535,28 537,26 540,26 C543,26 545,28 545,31 C545,28 547,26 550,26 C553,26 555,28 555,31 C555,28 557,26 560,26 C563,26 565,28 565,31 C565,28 567,26 570,26 C573,26 575,28 575,31 C575,28 577,26 580,26 C583,26 585,28 585,31 C585,28 587,26 590,26 C593,26 595,28 595,31 C595,28 597,26 600,26 C603,26 605,28 605,31 C605,28 607,26 610,26 C613,26 615,28 615,31 C615,28 617,26 620,26 C623,26 625,28 625,31 C628,31 630,33 630,36 C630,39 628,41 625,41 C628,41 630,43 630,46 C630,49 628,51 625,51 C628,51 630,53 630,56 C630,59 628,61 625,61 C628,61 630,63 630,66 C630,69 628,71 625,71 C628,71 630,73 630,76 C630,79 628,81 625,81 C628,81 630,83 630,86 C630,89 628,91 625,91 C628,91 630,93 630,96 C630,99 628,101 625,101 C628,101 630,103 630,106 C630,109 628,111 625,111 C625,114 622,116 620,116 C617,116 615,114 615,111 C615,114 612,116 610,116 C607,116 605,114 605,111 C605,114 602,116 600,116 C597,116 595,114 595,111 C595,114 592,116 590,116 C587,116 585,114 585,111 C585,114 582,116 580,116 C577,116 575,114 575,111 C575,114 572,116 570,116 C567,116 565,114 565,111 C565,114 562,116 560,116 C557,116 555,114 555,111 C555,114 552,116 550,116 C547,116 545,114 545,111 C545,114 542,116 540,116 C537,116 535,114 535,111 C535,114 532,116 530,116 C527,116 525,114 525,111 C525,114 522,116 520,116 C517,116 515,114 515,111 C515,114 512,116 510,116 C507,116 505,114 505,111 C505,114 502,116 500,116 C497,116 495,114 495,111 C495,114 492,116 490,116 C487,116 485,114 485,111 C485,114 482,116 480,116 C477,116 475,114 475,111 C475,114 472,116 470,116 C467,116 465,114 465,111 C465,114 462,116 460,116 C457,116 455,114 455,111 C455,114 452,116 450,116 C447,116 445,114 445,111 C445,114 442,116 440,116 C437,116 435,114 435,111 C435,114 432,116 430,116 C427,116 425,114 425,111 C425,114 422,116 420,116 C417,116 415,114 415,111 C415,114 412,116 410,116 C407,116 405,114 405,111 C405,114 402,116 400,116 C397,116 395,114 395,111 C395,114 392,116 390,116 C387,116 385,114 385,111 C385,114 382,116 380,116 C377,116 375,114 375,111 C375,114 372,116 370,116 C367,116 365,114 365,111 C365,114 362,116 360,116 C357,116 355,114 355,111 C355,114 352,116 350,116 C347,116 345,114 345,111 C345,114 342,116 340,116 C337,116 335,114 335,111 C335,114 332,116 330,116 C327,116 325,114 325,111 C325,114 322,116 320,116 C317,116 315,114 315,111 C315,114 312,116 310,116 C307,116 305,114 305,111 C305,114 302,116 300,116 C297,116 295,114 295,111 C295,114 292,116 290,116 C287,116 285,114 285,111 C285,114 282,116 280,116 C277,116 275,114 275,111 C275,114 272,116 270,116 C267,116 265,114 265,111 C265,114 262,116 260,116 C257,116 255,114 255,111 C255,114 252,116 250,116 C247,116 245,114 245,111 C245,114 242,116 240,116 C237,116 235,114 235,111 C235,114 232,116 230,116 C227,116 225,114 225,111 C225,114 222,116 220,116 C217,116 215,114 215,111 C215,114 212,116 210,116 C207,116 205,114 205,111 C205,114 202,116 200,116 C197,116 195,114 195,111 C195,114 192,116 190,116 C187,116 185,114 185,111 C185,114 182,116 180,116 C177,116 175,114 175,111 C175,114 172,116 170,116 C167,116 165,114 165,111 C165,114 162,116 160,116 C157,116 155,114 155,111 C155,114 152,116 150,116 C147,116 145,114 145,111 C145,114 142,116 140,116 C137,116 135,114 135,111 C132,111 130,109 130,106 C130,103 132,101 135,101 C132,101 130,99 130,96 C130,93 132,91 135,91 C132,91 130,89 130,86 C130,83 132,81 135,81 C132,81 130,79 130,76 C130,73 132,71 135,71 C132,71 130,69 130,66 C130,63 132,61 135,61 C132,61 130,59 130,56 C130,53 132,51 135,51 C132,51 130,49 130,46 C130,43 132,41 135,41 C132,41 130,39 130,36 C130,33 132,31 135,31 " fill="#FFFFFF" filter="url(#f1)" style="stroke: #000000; stroke-width: 2.0;"/><text fill="#000000" font-family="sans-serif" font-size="14" font-weight="bold" lengthAdjust="spacingAndGlyphs" textLength="57" x="350" y="49.9951">system</text><path d="M22,182 C22,172 138,172 138,172 C138,172 254,172 254,182 L254,275 C254,285 138,285 138,285 C138,285 22,285 22,275 L22,182 " fill="#FFFFFF" filter="url(#f1)" style="stroke: #000000; stroke-width: 2.0;"/><path d="M22,182 C22,192 138,192 138,192 C138,192 254,192 254,182 " fill="none" style="stroke: #000000; stroke-width: 2.0;"/><text fill="#000000" font-family="sans-serif" font-size="14" font-weight="bold" lengthAdjust="spacingAndGlyphs" textLength="60" x="108" y="205.9951">db-data</text><rect fill="#FEFECE" filter="url(#f1)" height="46.2969" style="stroke: #A80036; stroke-width: 1.5;" width="58" x="148.5" y="60"/><rect fill="#FEFECE" height="10" style="stroke: #A80036; stroke-width: 1.5;" width="15" x="186.5" y="65"/><rect fill="#FEFECE" height="2" style="stroke: #A80036; stroke-width: 1.5;" width="4" x="184.5" y="67"/><rect fill="#FEFECE" height="2" style="stroke: #A80036; stroke-width: 1.5;" width="4" x="184.5" y="71"/><text fill="#000000" font-family="sans-serif" font-size="14" lengthAdjust="spacingAndGlyphs" textLength="18" x="163.5" y="92.9951">db</text><rect fill="#FEFECE" filter="url(#f1)" height="46.2969" style="stroke: #A80036; stroke-width: 1.5;" width="74" x="241" y="60"/><rect fill="#FEFECE" height="10" style="stroke: #A80036; stroke-width: 1.5;" width="15" x="295" y="65"/><rect fill="#FEFECE" height="2" style="stroke: #A80036; stroke-width: 1.5;" width="4" x="293" y="67"/><rect fill="#FEFECE" height="2" style="stroke: #A80036; stroke-width: 1.5;" width="4" x="293" y="71"/><text fill="#000000" font-family="sans-serif" font-size="14" lengthAdjust="spacingAndGlyphs" textLength="34" x="256" y="92.9951">redis</text><rect fill="#FEFECE" filter="url(#f1)" height="46.2969" style="stroke: #A80036; stroke-width: 1.5;" width="110" x="350" y="60"/><rect fill="#FEFECE" height="10" style="stroke: #A80036; stroke-width: 1.5;" width="15" x="440" y="65"/><rect fill="#FEFECE" height="2" style="stroke: #A80036; stroke-width: 1.5;" width="4" x="438" y="67"/><rect fill="#FEFECE" height="2" style="stroke: #A80036; stroke-width: 1.5;" width="4" x="438" y="71"/><text fill="#000000" font-family="sans-serif" font-size="14" lengthAdjust="spacingAndGlyphs" textLength="70" x="365" y="92.9951">result-app</text><rect fill="#FEFECE" filter="url(#f1)" height="46.2969" style="stroke: #A80036; stroke-width: 1.5;" width="113" x="495.75" y="60"/><rect fill="#FEFECE" height="10" style="stroke: #A80036; stroke-width: 1.5;" width="15" x="588.75" y="65"/><rect fill="#FEFECE" height="2" style="stroke: #A80036; stroke-width: 1.5;" width="4" x="586.75" y="67"/><rect fill="#FEFECE" height="2" style="stroke: #A80036; stroke-width: 1.5;" width="4" x="586.75" y="71"/><text fill="#000000" font-family="sans-serif" font-size="14" lengthAdjust="spacingAndGlyphs" textLength="73" x="510.75" y="92.9951">voting-app</text><rect fill="#FEFECE" filter="url(#f1)" height="46.2969" style="stroke: #A80036; stroke-width: 1.5;" width="199" x="38.75" y="223"/><rect fill="#FEFECE" height="10" style="stroke: #A80036; stroke-width: 1.5;" width="15" x="217.75" y="228"/><rect fill="#FEFECE" height="2" style="stroke: #A80036; stroke-width: 1.5;" width="4" x="215.75" y="230"/><rect fill="#FEFECE" height="2" style="stroke: #A80036; stroke-width: 1.5;" width="4" x="215.75" y="234"/><text fill="#000000" font-family="sans-serif" font-size="14" lengthAdjust="spacingAndGlyphs" textLength="159" x="53.75" y="255.9951">/var/lib/postgresql/data</text><ellipse cx="291" cy="238" fill="#FEFECE" filter="url(#f1)" rx="8" ry="8" style="stroke: #A80036; stroke-width: 2.0;"/><text fill="#000000" font-family="sans-serif" font-size="14" lengthAdjust="spacingAndGlyphs" textLength="36" x="273" y="259.9951">6379</text><ellipse cx="405" cy="238" fill="#FEFECE" filter="url(#f1)" rx="8" ry="8" style="stroke: #A80036; stroke-width: 2.0;"/><text fill="#000000" font-family="sans-serif" font-size="14" lengthAdjust="spacingAndGlyphs" textLength="36" x="387" y="259.9951">5001</text><ellipse cx="552" cy="238" fill="#FEFECE" filter="url(#f1)" rx="8" ry="8" style="stroke: #A80036; stroke-width: 2.0;"/><text fill="#000000" font-family="sans-serif" font-size="14" lengthAdjust="spacingAndGlyphs" textLength="36" x="534" y="259.9951">5000</text><path d="M279.78,106.049 C282.278,136.985 286.794,192.909 289.266,223.53 " fill="none" style="stroke: #A80036; stroke-width: 1.0;"/><polygon fill="#A80036" points="289.674,228.5806,292.9367,219.2879,289.2716,223.5968,284.9627,219.9317,289.674,228.5806" style="stroke: #A80036; stroke-width: 1.0;"/><path d="M405,106.049 C405,136.985 405,192.909 405,223.53 " fill="none" style="stroke: #A80036; stroke-width: 1.0;"/><polygon fill="#A80036" points="405,228.5806,409,219.5806,405,223.5806,401,219.5806,405,228.5806" style="stroke: #A80036; stroke-width: 1.0;"/><text fill="#000000" font-family="sans-serif" font-size="13" lengthAdjust="spacingAndGlyphs" textLength="16" x="406" y="151.0669">80</text><path d="M552,106.049 C552,136.985 552,192.909 552,223.53 " fill="none" style="stroke: #A80036; stroke-width: 1.0;"/><polygon fill="#A80036" points="552,228.5806,556,219.5806,552,223.5806,548,219.5806,552,228.5806" style="stroke: #A80036; stroke-width: 1.0;"/><text fill="#000000" font-family="sans-serif" font-size="13" lengthAdjust="spacingAndGlyphs" textLength="16" x="553" y="151.0669">80</text><path d="M171.659,106.049 C164.59,135.233 152.134,186.654 144.518,218.0921 " fill="none" style="stroke: #A80036; stroke-width: 1.0;"/><polygon fill="#A80036" points="143.339,222.9598,149.3452,215.1543,144.516,218.1003,141.57,213.2711,143.339,222.9598" style="stroke: #A80036; stroke-width: 1.0;"/></g></svg>